<svg width="32" height="31" viewBox="0 0 32 31" fill="none" xmlns="http://www.w3.org/2000/svg">
<path d="M14.3388 24.0803C14.3388 25.1313 13.4868 25.9833 12.4357 25.9833C11.3847 25.9833 10.5327 25.1313 10.5327 24.0803C10.5327 23.0292 11.3847 22.1772 12.4358 22.1772C13.4868 22.1772 14.3388 23.0292 14.3388 24.0803ZM20.1413 22.1772C19.0903 22.1772 18.2383 23.0292 18.2383 24.0803C18.2383 25.1313 19.0903 25.9833 20.1413 25.9833C21.1924 25.9833 22.0444 25.1313 22.0444 24.0803C22.0444 23.0292 21.1924 22.1772 20.1413 22.1772ZM26.0486 13.2435L23.7069 20.2034C23.7069 20.2034 23.5131 21.2363 22.5255 21.2363C21.5378 21.2363 11.8797 21.2363 10.7011 21.2363C9.52245 21.2363 9.47292 19.9416 9.47292 19.9416C9.47292 19.9416 8.21649 10.6202 8.15423 10.0571C8.09197 9.49397 7.37179 9.07657 7.37179 9.07657L4.27314 7.62913C2.57666 6.74198 3.34779 5.05399 4.27314 5.44168C8.20234 7.2952 10.0276 8.20782 10.145 8.93791C10.2639 9.66942 10.4704 11.431 10.4704 11.431V11.4423C10.4945 11.4352 10.5115 11.431 10.5115 11.431C10.5115 11.431 22.5608 11.431 24.9945 11.431C26.7433 11.431 26.0486 13.2463 26.0486 13.2435ZM22.6613 17.1189L22.6372 17.1203H11.1736L11.4099 18.9937H22.1038L22.6613 17.1189ZM23.7776 13.3411H10.6997L10.9515 15.3432C13.4601 15.3432 20.8063 15.3432 23.1862 15.3432L23.7776 13.3411Z" fill="white"/>
</svg>
