<svg width="250" height="262" viewBox="0 0 250 262" fill="none" xmlns="http://www.w3.org/2000/svg">
<path fill-rule="evenodd" clip-rule="evenodd" d="M227.523 36.4767C241.325 25.4882 248.503 16.2933 249.058 8.89187C249.442 3.76781 246.883 0.999433 241.379 0.586733C238.338 0.358674 234.521 1.21562 229.929 3.15757C230.21 4.18645 230.517 5.37808 230.517 5.6329C230.517 5.6329 230.285 5.81755 229.881 6.13839C233.255 4.21481 235.871 3.32266 237.728 3.46194C240.765 3.68964 242.155 5.51151 241.899 8.92756C241.372 15.9494 225.004 31.8983 192.794 56.7741L131.533 102.564L131.554 102.279C147.429 84.0034 164.96 65.279 184.147 46.1062C198.156 31.9711 209.583 21.3487 218.427 14.2393L217.146 10.0741C209.871 14.6843 201.4 20.9684 191.733 28.9263C175.469 42.2111 160.301 56.1507 146.229 70.7449C131.72 86.0699 119.9 98.6382 110.766 108.45C106.335 111.553 101.802 114.744 97.1665 118.022C93.384 120.84 90.4995 123.1 88.5129 124.803C86.2635 125.939 82.8975 128.077 78.4149 131.216C72.5697 135.358 67.4647 137.265 63.0997 136.938C62.5304 136.895 61.9682 136.758 61.4131 136.525C72.9848 127.278 79.0197 119.333 79.5178 112.691C79.6601 110.793 79.1524 108.656 77.9947 106.279C77.041 103.726 75.7102 102.386 74.0021 102.258C72.8635 102.172 72.2657 102.509 72.2087 103.268C72.1803 103.648 72.2325 104.224 72.3653 104.998C72.7022 105.596 72.8564 106.084 72.8279 106.464C72.5718 109.88 72.1092 112.231 71.4403 113.517C64.1907 116.027 58.9623 122.123 55.7552 131.807C44.6389 142.615 35.3801 147.742 27.9787 147.187C25.3218 146.987 24.0929 145.559 24.2921 142.902C24.7333 137.019 30.1633 129.506 40.5821 120.363C49.9809 112.098 57.9255 106.682 64.4159 104.115C66.3849 103.309 67.4714 102.818 67.6754 102.642L66.0741 101.091C58.2788 100.697 48.759 102.941 37.5146 107.824C27.0436 112.573 18.6316 117.859 12.2788 123.68L11.9088 124.797L11.8661 125.367C11.8518 125.557 11.9396 125.659 12.1294 125.673C13.2681 125.758 16.4896 123.519 21.7938 118.954L21.7725 119.239C16.0033 124.914 12.8554 131.262 12.3288 138.284C11.8023 145.306 16.1886 149.165 25.4879 149.862C33.8382 150.489 45.0043 146.65 58.9863 138.347C59.8925 138.988 61.5792 139.4 64.0463 139.585C66.893 139.799 72.0929 137.899 79.6461 133.885C86.8361 130.064 90.6814 127.03 91.1819 124.782C96.3221 121.641 100.462 118.785 103.6 116.214L103.885 116.236C36.6323 188.486 2.25898 234.574 0.764718 254.501C0.437404 258.866 2.45622 261.213 6.82117 261.54C16.8795 262.294 30.3158 251.087 47.13 227.92C54.7628 217.334 61.5217 206.833 67.4068 196.418C63.0986 200.451 62.0863 201.858 57.9904 207.548C57.5579 208.149 57.091 208.798 56.5822 209.503C55.2837 211.536 53.9714 213.519 52.6453 215.451C33.3735 243.397 20.0369 257.092 12.6355 256.537C10.9275 256.409 10.1446 255.396 10.2869 253.498C10.6569 248.564 21.2749 232.947 42.1409 206.648C56.2651 188.813 69.4878 172.819 81.8091 158.666L82.0937 158.688C78.7757 166.958 75.3335 174.771 71.7673 182.125L75.9224 180.047L75.793 180.417C76.1738 179.628 76.5495 178.84 76.9201 178.052C78.3292 174.532 79.8403 170.924 81.4533 167.228C83.3274 162.597 85.1018 159.295 86.7765 157.321C98.0636 151.869 108.426 147.303 117.862 143.621C125.999 139.46 132.523 135.178 137.433 130.775C139.065 129.37 139.917 128.194 139.988 127.245C140.002 127.055 139.725 126.939 139.155 126.896C138.776 126.868 137.777 127.461 136.159 128.675C120.009 140.442 104.281 147.851 88.9755 150.902C110.938 125.257 123.237 111.389 125.875 109.297C136.778 101.335 145.138 95.4733 150.955 91.7108C188.213 65.6868 213.736 47.2754 227.523 36.4767Z" fill="black"/>
</svg>
