<svg width="1141" height="2240" viewBox="0 0 1141 2240" fill="none" xmlns="http://www.w3.org/2000/svg">
<path d="M0.5 0.5L106.5 6L212.5 24.5L329.5 52L444.5 100.5L563.5 161L664.5 236.5L749 302L819 378L888 464L945 560.5L996 652.5L1019.5 703.5L1034.5 757L1081.5 941L1088 1066V1197.5V2812.5C1088 2886.89 1088 2928.61 1088 3003C1088 3043.42 1088 3066.08 1088 3106.5C1096.4 3141.26 1101.1 3160.74 1109.5 3195.5C1122.58 3227.91 1129.92 3246.09 1143 3278.5C1157.84 3311.89 1166.16 3330.61 1181 3364C1199.16 3391.53 1209.34 3406.97 1227.5 3434.5C1247.22 3461.25 1258.28 3476.25 1278 3503C1303.77 3528.58 1318.23 3542.92 1344 3568.5C1371.92 3592.71 1387.58 3606.29 1415.5 3630.5C1446.55 3649.64 1463.95 3660.36 1495 3679.5C1528.59 3695.9 1547.41 3705.1 1581 3721.5C1613.02 3732.63 1630.98 3738.87 1663 3750C1696.78 3758.2 1715.72 3762.8 1749.5 3771C1783.09 3773.15 1801.91 3774.35 1835.5 3776.5C1865.96 3776.5 1883.04 3776.5 1913.5 3776.5" stroke="black"/>
</svg>
